<svg xmlns="http://www.w3.org/2000/svg" viewBox="0 0 505.56 272.84"><defs><style>.cls-1{fill:#abbdff;}.cls-2{fill:#44e5e7;}.cls-12,.cls-14,.cls-26,.cls-29,.cls-3,.cls-36,.cls-37{fill:none;stroke-miterlimit:10;}.cls-3{stroke:#008c60;}.cls-4{fill:#5c7aff;}.cls-5{fill:#73fbd3;}.cls-6{fill:#fff;}.cls-16,.cls-7{opacity:0.11;}.cls-8{fill:#b3fbd3;}.cls-9{fill:#4a8fe7;}.cls-10{fill:#e3e3e3;}.cls-11{fill:#ffd7c2;}.cls-12{stroke:#ff8847;}.cls-13{fill:#ccc;}.cls-14{stroke:#ffd7c2;}.cls-15{fill:#59d2fe;}.cls-17,.cls-19{font-size:6.49px;fill:#040f7e;font-family:PalatinoLinotype-Italic, Palatino Linotype;font-style:italic;}.cls-17{letter-spacing:-0.08em;}.cls-18{letter-spacing:0em;}.cls-20{fill:#7391ff;}.cls-21{fill:#c7d3ff;}.cls-22{fill:#ff9100;}.cls-23{fill:#b0c1ff;}.cls-24{fill:#6989ff;}.cls-25{fill:#5957d0;}.cls-26{stroke:#259c92;}.cls-26,.cls-29{stroke-width:0.5px;}.cls-27{fill:#ff9c9c;}.cls-28{fill:#020080;}.cls-29{stroke:#020080;}.cls-30{opacity:0.14;}.cls-31{fill:#485eb0;}.cls-32{fill:#ffe0cf;}.cls-33{fill:#ffceb3;}.cls-34{fill:#ff8847;}.cls-35{fill:#a6b9ff;}.cls-36{stroke:#414099;}.cls-37{stroke:#6e8dff;}.cls-38{fill:#542d18;}.cls-39{fill:#ff8080;}.cls-40{fill:#66361d;}.cls-41{fill:#ffe3d4;}</style></defs><g id="Capa_2" data-name="Capa 2"><g id="OBJECTS"><ellipse class="cls-1" cx="371.75" cy="259.45" rx="7.29" ry="1.21"/><ellipse class="cls-1" cx="422.81" cy="259.45" rx="7.29" ry="1.21"/><ellipse class="cls-1" cx="397.46" cy="259.45" rx="7.29" ry="1.21"/><path class="cls-1" d="M330.51,255.32c0,1.61-40.29,2.92-90,2.92s-90-1.31-90-2.92,40.3-2.92,90-2.92S330.51,253.71,330.51,255.32Z"/><ellipse class="cls-1" cx="87.44" cy="246.27" rx="81.74" ry="3.2"/><path class="cls-2" d="M313.59,242h187s13.5-74.71-4-86.73-20,11-30.5,11.48-12.5-40.68-26-40.34S423.27,168,409.18,174.15s-31.76-14.14-40.43,0-1.55,40.75-16.61,40.44S314.59,208.79,313.59,242Z"/><path class="cls-3" d="M440.42,142.16s5.17,59.24.67,100"/><path class="cls-3" d="M490.84,165.58s4.25,53.37-5.25,76.19"/><line class="cls-3" x1="484.34" y1="169.27" x2="491.45" y2="176.2"/><line class="cls-3" x1="499.59" y1="173.14" x2="491.69" y2="184.23"/><line class="cls-3" x1="480.96" y1="186.05" x2="491.72" y2="194.2"/><line class="cls-3" x1="501.84" y1="192.95" x2="491.55" y2="201.08"/><line class="cls-3" x1="478.59" y1="201.08" x2="490.98" y2="210.83"/><line class="cls-3" x1="501.84" y1="212.19" x2="490.44" y2="219.96"/><line class="cls-3" x1="447.25" y1="146.1" x2="441.31" y2="154.45"/><line class="cls-3" x1="429.92" y1="151.24" x2="441.8" y2="162.67"/><line class="cls-3" x1="455.09" y1="166.36" x2="442.56" y2="180.33"/><line class="cls-3" x1="423.75" y1="173.35" x2="442.93" y2="192.14"/><line class="cls-2" x1="465.59" y1="182.74" x2="442.92" y2="204.61"/><line class="cls-3" x1="417.59" y1="197.01" x2="442.62" y2="219.96"/><line class="cls-3" x1="469.09" y1="209.83" x2="442.22" y2="228.49"/><path class="cls-3" d="M379.65,182.74s9.83,30.33,10.66,59.37"/><line class="cls-3" x1="386.65" y1="185.33" x2="383.05" y2="194.85"/><line class="cls-3" x1="398.31" y1="190.13" x2="387.13" y2="213.55"/><line class="cls-3" x1="401.48" y1="210.83" x2="389.54" y2="230.5"/><line class="cls-3" x1="375.15" y1="194.2" x2="383.99" y2="198.66"/><line class="cls-3" x1="370.31" y1="208.49" x2="387.76" y2="217.2"/><line class="cls-3" x1="374.08" y1="226.75" x2="389.76" y2="232.83"/><path class="cls-2" d="M461.92,204.7l-8.61,36.61a4.05,4.05,0,0,1-4.88,3h0a4.06,4.06,0,0,1-3-4.88L454,202.84a4.07,4.07,0,0,1,4.88-3h0A4,4,0,0,1,461.92,204.7Z"/><path class="cls-4" d="M443.57,205.09l7.61,36.83a4.06,4.06,0,0,1-3.15,4.8h0a4.06,4.06,0,0,1-4.79-3.16l-7.61-36.83a4.06,4.06,0,0,1,3.16-4.79h0A4.05,4.05,0,0,1,443.57,205.09Z"/><path class="cls-5" d="M21.44,241.77S13.16,133.28,32.09,131s15.59,45.43,34.42,45,29.12-16.17,36,.78,7,33.44,23.34,28.35,40.32,36.67,40.32,36.67Z"/><path class="cls-2" d="M125.85,205.1c-16.29,5.09-16.46-11.4-23.34-28.35-5.82-14.34-14.08-5.28-27.89-1.89v66.91h91.55S142.13,200,125.85,205.1Z"/><path class="cls-6" d="M318.18,255.32a84.23,84.23,0,0,0-155.34,0Z"/><path class="cls-7" d="M292.47,221.63a84.18,84.18,0,0,0-103.92,0Z"/><polygon class="cls-6" points="396.51 215.39 84.51 215.39 84.51 0 396.51 0 396.51 0 396.51 215.39"/><rect class="cls-8" x="96.1" y="21.89" width="288.81" height="179.34"/><rect class="cls-9" x="96.1" y="21.89" width="71.01" height="179.34"/><rect class="cls-9" x="96.1" y="21.89" width="288.81" height="16.11"/><rect class="cls-4" x="96.1" y="21.89" width="71.01" height="16.11"/><circle class="cls-10" cx="240.51" cy="11.58" r="2.75"/><rect class="cls-6" x="100.64" y="25.9" width="9.17" height="1"/><rect class="cls-6" x="100.64" y="28.03" width="9.17" height="1"/><rect class="cls-6" x="100.64" y="30.15" width="9.17" height="1"/><rect class="cls-11" x="191.46" y="51.45" width="163" height="49.83"/><rect class="cls-9" x="189.61" y="49.3" width="49.85" height="49.85"/><rect class="cls-12" x="194.53" y="54.22" width="40" height="40"/><line class="cls-12" x1="194.53" y1="54.22" x2="234.54" y2="94.23"/><line class="cls-12" x1="194.53" y1="94.23" x2="234.54" y2="54.22"/><rect class="cls-6" x="239.46" y="49.3" width="113.17" height="49.85"/><rect class="cls-10" x="321.21" y="90.7" width="25.13" height="4.75"/><rect class="cls-13" x="241.58" y="52.7" width="37.25" height="8.5"/><rect class="cls-13" x="241.58" y="63.57" width="51" height="8.5"/><rect class="cls-10" x="241.58" y="75.62" width="104.75" height="1.49"/><rect class="cls-10" x="241.58" y="79.07" width="104.75" height="1.49"/><rect class="cls-10" x="241.58" y="82.53" width="29.62" height="1.49"/><rect class="cls-10" x="274.14" y="82.53" width="1.49" height="1.49"/><rect class="cls-10" x="277.43" y="82.53" width="1.49" height="1.49"/><rect class="cls-10" x="280.72" y="82.53" width="1.49" height="1.49"/><rect class="cls-10" x="284.01" y="82.53" width="1.49" height="1.49"/><rect class="cls-11" x="191.46" y="128.2" width="163" height="49.83"/><rect class="cls-9" x="189.61" y="126.05" width="49.85" height="49.85"/><rect class="cls-12" x="194.53" y="130.97" width="40" height="40"/><line class="cls-12" x1="194.53" y1="130.97" x2="234.54" y2="170.98"/><line class="cls-12" x1="194.53" y1="170.98" x2="234.54" y2="130.97"/><rect class="cls-6" x="239.46" y="126.05" width="113.17" height="49.85"/><rect class="cls-10" x="321.21" y="167.45" width="25.13" height="4.75"/><rect class="cls-13" x="241.58" y="129.45" width="37.25" height="8.5"/><rect class="cls-13" x="241.58" y="140.32" width="51" height="8.5"/><rect class="cls-10" x="241.58" y="152.37" width="104.75" height="1.49"/><rect class="cls-10" x="241.58" y="155.82" width="104.75" height="1.49"/><rect class="cls-10" x="241.58" y="159.28" width="29.62" height="1.49"/><rect class="cls-10" x="274.14" y="159.28" width="1.49" height="1.49"/><rect class="cls-10" x="277.43" y="159.28" width="1.49" height="1.49"/><rect class="cls-10" x="280.72" y="159.28" width="1.49" height="1.49"/><rect class="cls-10" x="284.01" y="159.28" width="1.49" height="1.49"/><line class="cls-14" x1="379.93" y1="42.67" x2="379.93" y2="196.42"/><path class="cls-6" d="M379.93,100.42h0a1.32,1.32,0,0,1-1.31-1.32V48a1.31,1.31,0,0,1,1.31-1.31h0A1.3,1.3,0,0,1,381.24,48V99.1A1.31,1.31,0,0,1,379.93,100.42Z"/><path class="cls-14" d="M310.1,112.83l-2.72,2.47a4,4,0,0,1-5.44,0h0a4,4,0,0,0-5.44,0h0a4,4,0,0,1-5.44,0h0a4,4,0,0,0-5.43,0h0a4,4,0,0,1-5.44,0h0a4,4,0,0,0-5.44,0h0a4,4,0,0,1-5.44,0h0a4,4,0,0,0-5.43,0h0a4,4,0,0,1-5.44,0h0a4,4,0,0,0-5.44,0h0a4,4,0,0,1-5.44,0h0a4,4,0,0,0-5.43,0h0a4,4,0,0,1-5.44,0L234,112.83"/><path class="cls-14" d="M310.1,189.58l-2.72,2.47a4,4,0,0,1-5.44,0h0a4,4,0,0,0-5.44,0h0a4,4,0,0,1-5.44,0h0a4,4,0,0,0-5.43,0h0a4,4,0,0,1-5.44,0h0a4,4,0,0,0-5.44,0h0a4,4,0,0,1-5.44,0h0a4,4,0,0,0-5.43,0h0a4,4,0,0,1-5.44,0h0a4,4,0,0,0-5.44,0h0a4,4,0,0,1-5.44,0h0a4,4,0,0,0-5.43,0h0a4,4,0,0,1-5.44,0L234,189.58"/><path class="cls-11" d="M372.78,26.79a2.85,2.85,0,0,0,3.75,4.27l2.87,2.88.53-.53-2.87-2.88a2.85,2.85,0,0,0-4.28-3.74Zm3.51,3.5a2.1,2.1,0,1,1,0-3A2.11,2.11,0,0,1,376.29,30.29Z"/><circle class="cls-11" cx="109.43" cy="55.45" r="4"/><rect class="cls-11" x="117.93" y="54.09" width="36" height="2.72"/><circle class="cls-11" cx="109.43" cy="71.82" r="4"/><rect class="cls-11" x="117.93" y="70.46" width="36" height="2.72"/><circle class="cls-11" cx="109.43" cy="88.2" r="4"/><rect class="cls-11" x="117.93" y="86.84" width="36" height="2.72"/><circle class="cls-11" cx="109.43" cy="104.57" r="4"/><rect class="cls-11" x="117.93" y="103.21" width="36" height="2.72"/><circle class="cls-11" cx="109.43" cy="120.95" r="4"/><rect class="cls-11" x="117.93" y="119.59" width="36" height="2.72"/><circle class="cls-11" cx="109.43" cy="137.32" r="4"/><rect class="cls-11" x="117.93" y="135.96" width="36" height="2.72"/><rect class="cls-15" x="203.62" y="25.91" width="73.78" height="8.07"/><g class="cls-16"><path d="M394.45,40.33H343.73a4,4,0,0,1-4.05-4.06h0a4,4,0,0,1,4.05-4.05h50.72a4.05,4.05,0,0,1,4.06,4.05h0A4.06,4.06,0,0,1,394.45,40.33Z"/></g><path class="cls-6" d="M395.7,38.17H345a4.06,4.06,0,0,1-4.06-4.06h0A4.06,4.06,0,0,1,345,30.05H395.7a4.06,4.06,0,0,1,4.06,4.06h0A4.06,4.06,0,0,1,395.7,38.17Z"/><text class="cls-17" transform="translate(362.01 36.46)">Y<tspan class="cls-18" x="3.8" y="0">eraldi</tspan></text><path class="cls-6" d="M419.08,111.07,416,148.56a4,4,0,0,1-4.37,3.71h0a4.06,4.06,0,0,1-3.72-4.37L411,110.41a4,4,0,0,1,4.37-3.71h0A4.06,4.06,0,0,1,419.08,111.07Z"/><text class="cls-19" transform="translate(414.95 140.14) rotate(-85.32)">Suárez</text><path class="cls-1" d="M466.26,205l-3.07,37.48a4.07,4.07,0,0,1-4.38,3.72h0a4.07,4.07,0,0,1-3.71-4.38l3.07-37.49a4.06,4.06,0,0,1,4.37-3.71h0A4.06,4.06,0,0,1,466.26,205Z"/><text class="cls-19" transform="translate(462.13 234.11) rotate(-85.32)">search</text><path class="cls-20" d="M451.42,202.84l8.2,36.71a4.06,4.06,0,0,1-3.08,4.84h0a4,4,0,0,1-4.84-3.08l-8.2-36.7a4.06,4.06,0,0,1,3.08-4.85h0A4.06,4.06,0,0,1,451.42,202.84Z"/><text class="cls-19" transform="translate(456.18 231.81) rotate(-102.59)">search</text><g class="cls-16"><rect x="164.09" y="148.01" width="49.85" height="49.85" transform="translate(-20.88 26.05) rotate(-7.47)"/></g><rect class="cls-6" x="160.81" y="145.21" width="49.85" height="49.85" transform="translate(-20.55 25.6) rotate(-7.47)"/><rect class="cls-21" x="163.73" y="148.13" width="44.01" height="44.01" transform="translate(-20.55 25.6) rotate(-7.47)"/><path class="cls-22" d="M204.25,161.84a8.61,8.61,0,1,1-9.66-7.42A8.62,8.62,0,0,1,204.25,161.84Z"/><polygon class="cls-23" points="208.8 176.77 210.48 189.56 171.75 194.64 194.13 165.5 208.8 176.77"/><polygon class="cls-24" points="205.43 190.22 166.84 195.28 164.55 177.75 173.69 165.84 186.38 175.59 205.43 190.22"/><path class="cls-25" d="M393.72,150.47l1.39,9.22,1.91,4.1s-10.62,1-14.85,0l7.89-4.36-1.39-8.33Z"/><path class="cls-5" d="M382.17,163.79c4.23,1,14.85,0,14.85,0l-1.91-4.1-5.05-.26Z"/><path class="cls-25" d="M410.33,150.47l1.38,9.22,1.92,4.1s-10.63,1-14.85,0l7.88-4.36-1.38-8.33Z"/><path class="cls-5" d="M398.78,163.79c4.22,1,14.85,0,14.85,0l-1.92-4.1-5-.26Z"/><path class="cls-9" d="M401.49,94.58l-22.14-.79c.19,10.23.53,21.13,1.14,26.38,1.33,11.42,6.82,34.28,6.82,34.28h8l-4-40.59L405,154.45h7.51c.06-5.24-10.67-53.34-10.92-56.94C401.51,96.59,401.48,95.61,401.49,94.58Z"/><path class="cls-26" d="M395.55,95.56s0,10.5,7.74,11.12"/><line class="cls-26" x1="389.43" y1="100.66" x2="391.37" y2="114.11"/><path class="cls-26" d="M386.71,100.66l.91,5.68a4.24,4.24,0,0,0,2.94,3.38l.19.06"/><path class="cls-4" d="M406,63.87c-6-6.94-10.23-7.19-15.21-8.33S372.1,57,365.41,54.72s-10.1-13.12-10.1-13.12c-.06-2.84-2.59-8-3.53-7.64s0,4.23,0,4.23h-6.95L350,43c7.8,26.33,29.09,24.12,29.09,24.12s0,18.59.38,32.62c8.74,6.5,18.82-.47,22-3.07-.35-8.12,1.94-20.47,1.94-20.47,6.32,5.81,10.29,25.06,10.29,25.06l-.12,5.71a4.06,4.06,0,0,1,3.19.15c.76.31-.39,2.81,0,3.13s1.36-.94,1.55-2.81c.34-3.46-.25-20.62-1.83-25.69C415,76.83,412,70.82,406,63.87Z"/><path class="cls-27" d="M351.78,34c-.95.38,0,4.23,0,4.23h-6.95L350,43l5.3-1.38C355.25,38.76,352.72,33.58,351.78,34Z"/><path class="cls-27" d="M389.21,37.59l-4.62,5.23,1.78.89s-.93,2.08-1.72,4.12,3.57,2,3.74,3.11-.46,3.49-.46,5.42c1,1.11,6,.34,6,.34l1.87-7.08s5-4.59,5.55-7.88-5.72-5.6-7.13-6.51-1.31-4-2.66-4.31S388.7,34.42,389.21,37.59Z"/><path class="cls-7" d="M396,49.41,394.45,49s-5.64,1.46-9.13.38c1.09.64,3,.89,3.07,1.58.17,1.08-.46,3.49-.46,5.42,1,1.11,6,.34,6,.34l1.87-7.08Z"/><path class="cls-28" d="M401.35,41.74c.51-3.28-5.72-5.6-7.13-6.51s-1.31-4-2.66-4.31-3.9,2.54-2.35,6.67a26.44,26.44,0,0,0,7.48,3.47L395,45.82s2.23-.68,2.12.53-2.15,3.1-2.95,2.53c0,0-1.16,1.43,1.17,2.7l.51-2S400.84,45,401.35,41.74Z"/><line class="cls-26" x1="403.9" y1="151.24" x2="412.14" y2="151.24"/><line class="cls-26" x1="386.62" y1="151.53" x2="395.08" y2="151.53"/><path class="cls-29" d="M386.9,55.24c-1,3.15,4.69,4.32,9.63,1.72"/><line class="cls-29" x1="413.5" y1="100.1" x2="418.38" y2="100.1"/><line class="cls-29" x1="355.67" y1="42.61" x2="350.45" y2="44.39"/><path class="cls-7" d="M399.42,68.68S395,84.86,402.13,85.26c.58-5,1.33-9.08,1.33-9.08C401.53,73.91,399.33,70.57,399.42,68.68Z"/><polygon class="cls-7" points="390.44 154.45 395.32 154.45 391.59 116.3 391.59 116.3 390.44 154.45"/><path class="cls-27" d="M416.81,110.23c.37.31,1.36-.94,1.55-2.81.1-1,.12-3.36.05-6.2l-4.68-.1h0l0,.12-.12,5.71a4.06,4.06,0,0,1,3.19.15C417.58,107.41,416.43,109.91,416.81,110.23Z"/><path class="cls-25" d="M403,164.87l-.23,2.58H381.15l.22-2.58h-2.5l-8.16,94.77h2.5L374.56,244h21.63l-1.35,15.64h2.5l8.16-94.77Zm-4.72,4.46h4.33l-1.44,16.78H379.54L381,169.33ZM379.38,188H401l-1.44,16.78H377.94Zm20,18.67L398,223.45H376.33l1.44-16.78H399.4Zm-3,35.44H374.72l1.45-16.78h21.62Z"/><rect x="375.45" y="163.6" width="44.48" height="1.26"/><rect x="375.45" y="163.6" width="19.62" height="1.26"/><polygon class="cls-20" points="414.6 169.27 391.85 169.27 391.69 167.38 414.44 167.38 414.6 169.27"/><polygon class="cls-30" points="396.81 169.27 391.85 169.27 391.69 167.38 396.65 167.38 396.81 169.27"/><polygon class="cls-20" points="416.21 187.94 393.46 187.94 393.3 186.05 416.05 186.05 416.21 187.94"/><polygon class="cls-30" points="398.42 187.94 393.46 187.94 393.3 186.05 398.26 186.05 398.42 187.94"/><polygon class="cls-20" points="417.81 206.6 395.06 206.6 394.9 204.72 417.65 204.72 417.81 206.6"/><polygon class="cls-30" points="400.02 206.6 395.06 206.6 394.9 204.72 399.86 204.72 400.02 206.6"/><polygon class="cls-20" points="419.42 225.27 396.67 225.27 396.51 223.38 419.26 223.38 419.42 225.27"/><polygon class="cls-30" points="401.63 225.27 396.67 225.27 396.51 223.38 401.47 223.38 401.63 225.27"/><polygon class="cls-20" points="421.03 243.94 398.28 243.94 398.12 242.05 420.87 242.05 421.03 243.94"/><polygon class="cls-30" points="403.24 243.94 398.28 243.94 398.12 242.05 403.08 242.05 403.24 243.94"/><polygon class="cls-20" points="400.25 259.58 397.75 259.58 389.59 164.81 392.09 164.81 400.25 259.58"/><polygon class="cls-20" points="424.37 259.58 421.87 259.58 413.72 164.81 416.22 164.81 424.37 259.58"/><path class="cls-7" d="M386.75,34.57s-1.13,4.19-.19,6.38a6.64,6.64,0,0,1,.56-2.76A13.18,13.18,0,0,1,386.75,34.57Z"/><rect class="cls-31" x="14.97" y="210.71" width="79.68" height="29.94"/><path class="cls-24" d="M15,210.71a15,15,0,0,0,0,29.94Z"/><path class="cls-7" d="M15,210.71a15,15,0,0,0,0,29.94Z"/><path class="cls-7" d="M94.65,210.71a15,15,0,0,0,0,29.94Z"/><polygon class="cls-24" points="92.82 210.71 16.8 210.71 14.97 210.71 14.97 212.54 14.97 240.65 16.8 240.65 16.8 212.54 92.82 212.54 92.82 240.65 94.65 240.65 94.65 212.54 94.65 210.71 92.82 210.71"/><rect class="cls-7" x="14.97" y="237.52" width="79.68" height="3.13"/><rect class="cls-6" x="71.72" y="221.09" width="30.82" height="30.37" transform="translate(-38 17.73) rotate(-9.55)"/><rect class="cls-32" x="73.31" y="222.66" width="27.65" height="27.23" transform="translate(-38 17.73) rotate(-9.55)"/><path class="cls-33" d="M100.81,234.21c-8.89,1.61-21.7,7.68-26.36,10l1.31,7.8L103,247.41Z"/><path class="cls-2" d="M99.22,226.26l3.57,21.19-12.66,2.13c1.14-1.58,5.2-2.33,3-3.44-2.42-1.18-5.32.49-3.93-1.91s3.63-6.58,2.41-6.53-4,1.34-2.79-1.23,4.33-6.76,2.6-6.57-4.31,1.93-2.84-.7,2-5.39.91-5c-.51.18-.07-.95.56-2.22l4.2-.7,1,1Z"/><path class="cls-21" d="M98.51,220.55,103,247.41l-7.91,1.33c-.38-1,4.61-3.82,4.21-5.3s-4.61,1.71-5,.84,4.24-6.07,4-8.5-2.47,1.23-4.43,0,2.62-4.92,2.85-7.54-2.1-.83-3.32-1.65c-.6-.41.47-2.39,1.71-4.28L96.1,221Z"/><rect class="cls-6" x="54.74" y="221.09" width="30.82" height="30.37" transform="translate(-38.23 14.92) rotate(-9.55)"/><rect class="cls-2" x="56.33" y="222.66" width="27.65" height="27.23" transform="translate(-38.23 14.92) rotate(-9.55)"/><path class="cls-11" d="M79.43,234.71a4.94,4.94,0,1,1-5.69-4.05A4.94,4.94,0,0,1,79.43,234.71Z"/><path class="cls-34" d="M83.64,233.09l2.41,14.32L58.78,252l-2-11.7a15.62,15.62,0,0,0,10.39.63c7.12-1.75,9.93-7.09,15-7.71C82.69,233.16,83.17,233.12,83.64,233.09Z"/><polygon class="cls-31" points="62.42 227.84 61.42 228.6 60.23 228.22 59.34 229.63 60.28 228.79 61.58 229.53 62.57 228.41 63.73 228.89 62.42 227.84"/><polygon class="cls-31" points="65.96 230.15 64.96 230.9 63.77 230.52 62.88 231.93 63.82 231.09 65.12 231.83 66.1 230.71 67.27 231.19 65.96 230.15"/><rect class="cls-6" x="37.26" y="221.09" width="30.82" height="30.37" transform="translate(-38.47 12.01) rotate(-9.55)"/><rect class="cls-21" x="38.85" y="222.66" width="27.65" height="27.23" transform="translate(-38.47 12.02) rotate(-9.55)"/><path class="cls-35" d="M66.35,234.21c-8.89,1.61-21.7,7.68-26.36,10L41.3,252l27.27-4.59Z"/><path class="cls-24" d="M64.76,226.26l3.57,21.19-12.66,2.13c1.13-1.58,5.2-2.33,3-3.44-2.42-1.18-5.33.49-3.93-1.91s3.63-6.58,2.41-6.53-4,1.34-2.79-1.23,4.33-6.76,2.6-6.57-4.31,1.93-2.84-.7,2-5.39.91-5c-.52.18-.07-.95.56-2.22l4.2-.7,1,1Z"/><path class="cls-31" d="M64.05,220.55l4.52,26.86-7.91,1.33c-.38-1,4.61-3.82,4.21-5.3s-4.61,1.71-5,.84,4.24-6.07,4-8.5-2.47,1.23-4.43,0,2.62-4.92,2.85-7.54-2.1-.83-3.32-1.65c-.6-.41.47-2.39,1.71-4.28l.89-1.32Z"/><rect class="cls-6" x="20.28" y="221.09" width="30.82" height="30.37" transform="translate(-38.71 9.2) rotate(-9.55)"/><rect class="cls-21" x="21.87" y="222.66" width="27.65" height="27.23" transform="translate(-38.71 9.2) rotate(-9.55)"/><path class="cls-22" d="M45,234.71a4.94,4.94,0,1,1-5.69-4.05A4.94,4.94,0,0,1,45,234.71Z"/><path class="cls-24" d="M49.17,233.09l2.41,14.32L24.32,252l-2-11.7a15.62,15.62,0,0,0,10.39.63c7.12-1.75,9.93-7.09,15-7.71C48.23,233.16,48.71,233.12,49.17,233.09Z"/><polygon class="cls-31" points="27.96 227.84 26.96 228.6 25.77 228.22 24.88 229.63 25.82 228.79 27.12 229.53 28.11 228.41 29.27 228.89 27.96 227.84"/><polygon class="cls-31" points="31.5 230.15 30.5 230.9 29.31 230.52 28.42 231.93 29.36 231.09 30.66 231.83 31.64 230.71 32.81 231.19 31.5 230.15"/><polygon class="cls-7" points="105.06 250.69 22.35 250.69 20.32 237.52 103.03 237.52 105.06 250.69"/><rect class="cls-24" x="14.97" y="240.65" width="95.4" height="30.85"/><rect class="cls-7" x="14.97" y="240.65" width="27.3" height="30.85"/><path class="cls-7" d="M68.54,240.65v.94A3.48,3.48,0,0,0,72,245.08h7.79a3.48,3.48,0,0,0,3.48-3.49v-.94Z"/><g class="cls-16"><path d="M104.32,253.12H49.57a.89.89,0,0,1,0-1.77h54.75a.89.89,0,0,1,0,1.77Z"/></g><g class="cls-16"><path d="M104.32,258.1H49.57a.89.89,0,0,1,0-1.77h54.75a.89.89,0,0,1,0,1.77Z"/></g><g class="cls-16"><path d="M104.32,263.08H49.57a.89.89,0,0,1,0-1.77h54.75a.89.89,0,0,1,0,1.77Z"/></g><polygon class="cls-25" points="467.1 264.13 440.23 264.13 438.35 229.79 468.98 229.79 467.1 264.13"/><line class="cls-36" x1="441.57" y1="234.38" x2="468.65" y2="234.38"/><path class="cls-37" d="M439.23,234.38s8.37,24.5,27.25,24.5c10.62,0,2.12-22.13,2.12-22.13"/><path class="cls-38" d="M145.91,149.34c1.17,2,2.55,5.43,1.59,8.39s-3.21,4.29-3.83,7.08,1.58,12.55-3.59,12.75S136.29,166,136.29,166l3.5-15.41Z"/><path class="cls-9" d="M136.12,202.52s11.63,21.38,13.25,25.75S141.57,259.4,142,263s8.4,4.5,8.15,6.38-10.25-.38-13,0-4.12-1-3.25-3.25a67,67,0,0,0,3.13-8.88c.5-2.5.67-17.25,4.34-24.75L130.75,215Z"/><path class="cls-9" d="M136.77,216.26s7.5,10.33,7.67,14.17-4.75,30.16-6,33.33"/><path class="cls-7" d="M140.38,210.44c-1.74-3.26-3.21-6-3.88-7.22l-.5-.41L130.75,215l9.33,15.43Z"/><path class="cls-39" d="M139.52,179.6l4.32,5.15s13.41-2.38,14.87-3.84,4.93-4.85,6.58-4.88-3.16,3.4-3.1,4.46.41,3.1.41,3.1L143,190.92l-6.88-7.11Z"/><polygon class="cls-7" points="142.78 183.49 139.52 179.6 136.13 183.81 140.62 188.45 142.78 183.49"/><path class="cls-27" d="M144,153.19l1,6.5h-1.62s-1.09,6.79-5,5.46l-.5,2.71-4.63-.25,3-9.05Z"/><path class="cls-7" d="M133.33,167.61l4.63.25.5-2.71a2.58,2.58,0,0,0,2.06-.1c-4.38-.82-2.74-5.84-2.74-5.84l-1.1-.86-.31.21Z"/><path class="cls-4" d="M134.66,166.3,139,167a17.25,17.25,0,0,0,0,5.19c.47,2.22,2.78,6.22,2.22,8.72s-5.05,10.27-5.13,13c-.08,3.15,2.67,32.06,3.09,36.9s-13.42,32.08-13.67,34.83,9.5,4.58,9.5,6.33-10.75.17-12.67,0-5.33,1.67-5.58-1.08,3-7.92,4.67-12.58,5.16-21.59,8.83-27.67c0,0-4.42-11.42-5.75-15s-4.46-7-4.58-13.67c-.09-4.58,2.41-7.58,2.83-11.41s-.78-7.42-.12-10.38,2.62-13.93,2.62-13.93Z"/><path class="cls-4" d="M129.44,197.09c-.5,3.59-1.17,6.75,0,11.5s5.37,18.17,5.6,22.5-12.77,33.09-13.1,36.09"/><path class="cls-2" d="M139,167l-4.37-.72h-9.37s-2,11-2.62,13.93.54,6.54.12,10.38a21.72,21.72,0,0,1-1.54,5.26,38.34,38.34,0,0,0,15.12,2.65c-.16-2.27-.26-3.93-.25-4.56.08-2.76,4.57-10.53,5.13-13s-1.75-6.5-2.22-8.72A17.25,17.25,0,0,1,139,167Z"/><path class="cls-7" d="M137.51,189.57l-10.82-12.38,9.54,19.32c-.08-1.23-.12-2.13-.1-2.55A14.64,14.64,0,0,1,137.51,189.57Z"/><path class="cls-27" d="M126.87,177.61s8.29,12.44,10.33,15.33,6.2,3.61,10.79,5,14,2.93,19.06,1.16,6-3.85,6-3.85l-6.32.85c-.59,0-.68-.86.06-1.56s1.27-1.92.74-2.1-2.59,1.54-3.51,1.89-2.53,1.35-4.23,1-15-4.3-17.39-5.75-8.15-14.23-9-16.29-1.94-3.33-3.94-3.2S124.91,173.32,126.87,177.61Z"/><path class="cls-40" d="M146.08,149.65s-2.21,9.29-9.08,11.29c0,0-3.42,13.75-11.92,11.87a27.72,27.72,0,0,0-2.41,7.42s-5,.21-5.67-5.92,8.87-15.25,10-17.79,1-7,4.12-9.91A9.68,9.68,0,0,1,141.29,145,12.1,12.1,0,0,1,146.08,149.65Z"/><path class="cls-41" d="M137.12,269.4c2.75-.38,12.75,1.87,13,0s-7.56-2.74-8.12-6.26l-6.78-.4c-.5,1.29-1,2.5-1.35,3.41C133,268.4,134.37,269.77,137.12,269.4Z"/><path class="cls-41" d="M125.57,266.05h-7.46a11.6,11.6,0,0,0-1.32,4.89c.25,2.75,3.67.92,5.58,1.08S135,273.77,135,272,126.15,268.6,125.57,266.05Z"/><path class="cls-7" d="M121.86,170.51s-2.64,4.19.81,9.72a27.72,27.72,0,0,1,2.41-7.42A4.63,4.63,0,0,1,121.86,170.51Z"/></g></g></svg>