<svg xmlns="http://www.w3.org/2000/svg" viewBox="0 0 2162.5 1682"><defs><style>.cls-1{fill:#5c7aff;}</style></defs><g id="Capa_2" data-name="Capa 2"><g id="Capa_2-2" data-name="Capa 2"><path class="cls-1" d="M2162.5,182.5a91.06,91.06,0,0,1-122.64,85.35q-11.61-6.72-23.52-13A658.17,658.17,0,0,0,1709.5,179.5c-212.84,0-402.18,100.6-523.08,256.84A658,658,0,0,0,1049,815.12s0,0,0,0q-.46,12.6-.47,25.33t.47,25.33s0,0,0,0a597.81,597.81,0,0,1-107.14,317.95C833.25,1339.58,652.77,1441.5,448.5,1441.5q-25.28,0-50-2-20.53-1.7-40.65-4.75A91,91,0,0,1,388.5,1258a92.06,92.06,0,0,1,9.3.47l.28,0c.8.11,1.6.2,2.4.29a425.35,425.35,0,0,0,48,2.71c226.8,0,411.72-179.35,420.66-404v-.09q.35-8.43.34-17t-.33-16.71h0A837.23,837.23,0,0,1,942.1,497.56q13.85-30.92,30.07-60.46A842.49,842.49,0,0,1,1079.5,284.43C1233.6,110,1459,0,1710,0a837.39,837.39,0,0,1,382.92,92q4.48,2.29,8.95,4.66,13,6.85,25.75,14.16A90.84,90.84,0,0,1,2162.5,182.5Z"/><path d="M942.1,497.56a837.23,837.23,0,0,0-72.93,326.22C860.39,599,675.41,419.5,448.5,419.5a426.12,426.12,0,0,0-42.79,2.15q-5.31.54-10.59,1.2c-1.69.1-3.4.15-5.12.15a91,91,0,0,1-29.6-177.07q19.28-2.87,39-4.45,2.91-.24,5.82-.45h0q21.45-1.51,43.3-1.53C652.94,239.5,833.55,341.59,942.1,497.56Z"/><path class="cls-1" d="M1801.5,330.5a91,91,0,0,1-73.91,89.39q-9-.39-18.09-.39-8.28,0-16.47.32C1477.8,428.1,1304,598,1289.49,811.53q-1,14.36-1,29,0,14.78,1,29.3a836.81,836.81,0,0,1-72.34,314q-14,31.32-30.43,61.25a843.38,843.38,0,0,1-107.24,152.49C925.4,1572,700.05,1682,449,1682a837.35,837.35,0,0,1-388.48-94.91q-12-6.27-23.8-12.92a91,91,0,0,1,87.18-157.73q10.36,5.86,21,11.36,2.85,1.48,5.73,2.94l0,0A658.44,658.44,0,0,0,448.5,1501.5c213,0,402.46-100.74,523.35-257.18A658.27,658.27,0,0,0,1109.5,840.5a598.14,598.14,0,0,1,107.4-342.94c108.55-156,289.16-258.06,493.6-258.06A91,91,0,0,1,1801.5,330.5Z"/><path d="M1005.5,252.5a90.64,90.64,0,0,1-14.22,48.88q-3.85,5.1-7.61,10.26A91.08,91.08,0,0,1,872.09,333l0,0q-12.85-10.74-26.26-20.83a661.59,661.59,0,0,0-700.25-59.33Q133.75,259,122.23,265.5A91,91,0,0,1,32.77,110.06h0q15.49-8.85,31.4-17h0a841.7,841.7,0,0,1,900.23,83.39q6.42,5,12.76,10.11A90.77,90.77,0,0,1,1005.5,252.5Z"/></g></g></svg>